<?xml version="1.0" encoding="UTF-8" standalone="no"?>
<svg width="600" height="200" viewBox="0 0 600 200" fill="none" xmlns="http://www.w3.org/2000/svg">
  <!-- Hexagon with circuit design - Professional version -->
  <g id="hex-icon">
    <!-- Hexagon outline -->
    <path d="M147.5 22.5L80 22.5C76.5 22.5 73.5 24 71.5 26.5L37.5 84C35.5 86.5 35.5 90 37.5 92.5L71.5 150C73.5 152.5 76.5 154 80 154L147.5 154C151 154 154 152.5 156 150L190 92.5C192 90 192 86.5 190 84L156 26.5C154 24 151 22.5 147.5 22.5Z" fill="#009DFF" stroke="#009DFF" stroke-width="1"/>
    
    <!-- Inner design elements -->
    <path d="M113.5 40L77 40C74.5 40 72.5 41 71 43L53 74C51.5 76 51.5 78.5 53 80.5L71 111.5C72.5 113.5 74.5 114.5 77 114.5L113.5 114.5C116 114.5 118 113.5 119.5 111.5L137.5 80.5C139 78.5 139 76 137.5 74L119.5 43C118 41 116 40 113.5 40Z" fill="white" stroke="#009DFF" stroke-width="2"/>
    
    <!-- Circuit nodes and lines -->
    <circle cx="95" cy="60" r="5" fill="#009DFF"/>
    <circle cx="130" cy="77" r="5" fill="#009DFF"/>
    <circle cx="80" cy="94" r="5" fill="#009DFF"/>
    <path d="M95 60L130 77L80 94" stroke="#009DFF" stroke-width="2"/>
  </g>
  
  <!-- Text: CYBER - More professional font -->
  <g id="text-cyber">
    <!-- C -->
    <path d="M297.04 34.2C291.92 30.6 285.68 28.8 278.32 28.8C270.8 28.8 264.32 30.6 258.88 34.2C253.44 37.8 249.28 42.8 246.4 49.2C243.52 55.6 242.08 62.84 242.08 70.92C242.08 79 243.52 86.24 246.4 92.64C249.28 99.04 253.44 104.04 258.88 107.64C264.32 111.24 270.8 113.04 278.32 113.04C285.68 113.04 291.92 111.24 297.04 107.64C302.16 104.04 306 99.04 308.56 92.64C311.12 86.24 312.4 79 312.4 70.92C312.4 62.84 311.12 55.6 308.56 49.2C306 42.8 302.16 37.8 297.04 34.2ZM287.92 93.72C284.48 96.44 281.2 97.8 278.08 97.8C274.96 97.8 271.68 96.44 268.24 93.72C264.8 91 262.16 87.24 260.32 82.44C258.48 77.64 257.56 72.12 257.56 65.88C257.56 59.64 258.44 54.2 260.2 49.56C261.96 44.92 264.52 41.32 267.88 38.76C271.24 36.2 274.88 34.92 278.8 34.92C282.72 34.92 286.36 36.2 289.72 38.76C293.08 41.32 295.64 44.92 297.4 49.56C299.16 54.2 300.04 59.64 300.04 65.88C300.04 72.12 299.12 77.64 297.28 82.44C295.44 87.24 292.84 91 289.72 93.72C288.8 93.72 288.36 93.72 287.92 93.72Z" fill="#009DFF"/>
    
    <!-- Y -->
    <path d="M335.04 28.8L316.96 70.92V107.4H331.92V70.92L352.88 28.8H335.04Z" fill="#009DFF"/>
    
    <!-- B -->
    <path d="M382.48 61.08C387.28 58.52 390.4 53.72 390.4 48.12C390.4 45.16 389.56 42.28 387.88 39.64C386.2 37 383.72 34.92 380.44 33.48C377.16 32.04 373.16 31.48 368.44 31.48H354.56V108.84H374.16C378.4 108.84 382.16 108.04 385.44 106.44C388.72 104.84 391.28 102.6 393.12 99.72C394.96 96.84 395.88 93.48 395.88 89.76C395.88 84.8 394.56 80.52 391.92 77.04C389.28 73.56 386.2 70.92 382.48 69.24V61.08ZM370.32 41.88H372.28C374.68 41.88 376.44 42.52 377.56 43.72C378.68 44.92 379.32 46.52 379.32 48.36C379.32 50.2 378.68 51.8 377.56 53C376.44 54.2 374.68 54.84 372.28 54.84H370.32V41.88ZM379.32 93.24C378.04 94.68 376.16 95.4 373.68 95.4H370.32V81.96H373.68C376.16 81.96 378.04 82.68 379.32 84.12C380.6 85.56 381.24 87.4 381.24 89.64C381.24 91.88 380.6 93.24 379.32 94.68V93.24Z" fill="#009DFF"/>
    
    <!-- E -->
    <path d="M432.8 32.76H398.96V103.08H432.8V90.12H413.92V74.64H431.12V61.92H413.92V45.72H432.8V32.76Z" fill="#009DFF"/>
    
    <!-- R -->
    <path d="M476.48 32.76H439.6V103.08H454.56V78.12H458.48L471.2 103.08H487.96L473.2 75.96C474.48 75.72 475.84 75.24 477.2 74.64C480.16 73.32 482.56 71.28 484.4 68.64C486.24 66 487.24 62.64 487.24 58.68C487.24 52.68 485.44 47.88 481.84 44.28C478.24 40.68 473.04 38.76 466.4 38.76H454.56V32.76H476.48ZM454.56 46.08H466.16C468.56 46.08 470.32 46.72 471.44 47.92C472.56 49.12 473.2 50.72 473.2 52.56C473.2 54.4 472.56 56 471.44 57.2C470.32 58.4 468.56 59.04 466.16 59.04H454.56V46.08Z" fill="#009DFF"/>
  </g>
  
  <!-- Text: DIGITAL SOLUTIONS - Professional, crisp font -->
  <g id="tagline-text">
    <path d="M243.6 130.4C240.32 126.8 235.52 125 229.44 125H217.6V165H229.44C235.52 165 240.32 163.2 243.6 159.6C246.88 156 248.48 150.8 248.48 144C248.48 137.2 246.88 134 243.6 130.4ZM235.52 152.8C233.76 155.2 231.2 156.4 227.84 156.4H225.92V133.6H227.84C231.2 133.6 233.76 134.8 235.52 137.2C237.28 139.6 238.16 142.8 238.16 146.8C238.16 150.8 237.28 150.4 235.52 152.8Z" fill="#2E3A59"/>
    
    <path d="M265.28 125H257.44V165H265.28V125Z" fill="#2E3A59"/>
    
    <path d="M288.8 134.8C284.98 134.8 281.78 136.12 279.44 138.76C277.1 141.4 275.92 144.84 275.92 149.08V165H283.76V149.72C283.76 147.96 284.22 146.52 285.14 145.4C286.06 144.28 287.46 143.72 289.36 143.72C291.26 143.72 292.66 144.28 293.58 145.4C294.5 146.52 294.96 147.96 294.96 149.72V165H302.8V149.08C302.8 144.84 301.62 141.4 299.28 138.76C296.94 136.12 293.26 134.8 288.8 134.8Z" fill="#2E3A59"/>
    
    <path d="M320.72 125H312.88V165H320.72V125Z" fill="#2E3A59"/>
    
    <path d="M349.84 135.16C346.72 137.48 344.56 140.84 343.36 145.24L350.8 147.4C351.44 144.92 352.48 143 353.92 141.64C355.36 140.28 357.2 139.6 359.44 139.6C361.68 139.6 363.44 140.08 364.72 141.04C366 142 366.64 143.32 366.64 145C366.64 146.28 366.16 147.44 365.2 148.48C364.24 149.52 363.04 150.44 361.6 151.24C360.16 152.04 357.68 153.24 354.16 154.84C350.32 156.76 347.52 158.68 345.76 160.6C344 162.52 343.12 164.92 343.12 167.8C343.12 172.2 344.4 175.4 347.12 177.64C349.84 179.88 353.52 180.92 358.24 180.92C361.52 180.92 364.48 180.28 367.12 178.84C369.76 177.4 371.68 175.48 372.88 173.08L365.68 170.44C364.24 173.16 361.84 174.44 358.48 174.44C356.56 174.44 355.04 173.96 353.92 173C352.8 172.04 352.24 170.68 352.24 169C352.24 167.72 352.72 166.64 353.68 165.76C354.64 164.88 356.72 163.72 359.92 162.28C364.08 160.52 367.28 158.92 369.52 157.48C371.76 156.04 373.44 154.4 374.56 152.56C375.68 150.72 376.24 148.44 376.24 145.72C376.24 141.32 374.8 137.88 371.92 135.4C369.04 132.92 365.04 131.72 359.92 131.72C355.92 131.72 352.96 132.84 349.84 135.16Z" fill="#2E3A59"/>
    
    <path d="M397.92 125H390.08V165H411.12V157.65H397.92V125Z" fill="#2E3A59"/>
    
    <path d="M437.68 134.4C434.32 132.18 430.22 131 425.44 131C420.66 131 416.56 132.18 413.2 134.4C409.84 136.62 407.24 139.78 405.44 143.72C403.64 147.66 402.72 152.06 402.72 156.76C402.72 161.46 403.64 165.7 405.44 169.48C407.24 173.26 409.84 176.18 413.2 178.24C416.56 180.3 420.66 181.36 425.44 181.36C430.22 181.36 434.32 180.3 437.68 178.24C441.04 176.18 443.64 173.26 445.44 169.48C447.24 165.7 448.16 161.46 448.16 156.76C448.16 152.06 447.24 147.66 445.44 143.72C443.64 139.78 441.04 136.62 437.68 134.4ZM435.52 165.8C433.52 167.7 430.9 168.68 427.68 168.68C424.46 168.68 421.84 167.7 419.84 165.8C417.84 163.9 416.32 161.46 415.36 158.36C414.4 155.26 413.92 151.78 413.92 147.88C413.92 143.98 414.4 140.5 415.36 137.56C416.32 134.62 417.84 132.34 419.84 130.8C421.84 129.26 424.46 128.44 427.68 128.44C430.9 128.44 433.52 129.26 435.52 130.8C437.52 132.34 439.04 134.62 440 137.56C440.96 140.5 441.44 143.98 441.44 147.88C441.44 151.78 440.96 155.26 440 158.36C439.04 161.46 437.52 163.9 435.52 165.8Z" fill="#2E3A59"/>
    
    <path d="M470.08 125H456.18V165H464.02V151.56L470.88 151.56C475.26 151.56 478.62 150.18 480.96 147.42C483.3 144.66 484.48 141.14 484.48 136.78C484.48 132.42 483.3 129.06 480.96 126.72C478.62 125.52 475.26 125 470.88 125H470.08ZM470.08 143.88L464.02 143.88V132.84L470.08 132.84C471.82 132.84 473.1 133.3 473.92 134.3C474.74 135.3 475.12 136.7 475.12 138.5C475.12 140.3 474.74 141.46 473.92 142.22C473.1 143.28 471.82 143.88 470.08 143.88Z" fill="#2E3A59"/>
    
    <path d="M507.04 134.4C503.68 132.18 499.58 131 494.8 131C490.02 131 485.92 132.18 482.56 134.4C479.2 136.62 476.6 139.78 474.8 143.72C473 147.66 472.08 152.06 472.08 156.76C472.08 161.46 473 165.7 474.8 169.48C476.6 173.26 479.2 176.18 482.56 178.24C485.92 180.3 490.02 181.36 494.8 181.36C499.58 181.36 503.68 180.3 507.04 178.24C510.4 176.18 513 173.26 514.8 169.48C516.6 165.7 517.52 161.46 517.52 156.76C517.52 152.06 516.6 147.66 514.8 143.72C513 139.78 510.4 136.62 507.04 134.4ZM504.88 165.8C502.88 167.7 500.26 168.68 497.04 168.68C493.82 168.68 491.2 167.7 489.2 165.8C487.2 163.9 485.68 161.46 484.72 158.36C483.76 155.26 483.28 151.78 483.28 147.88C483.28 143.98 483.76 140.5 484.72 137.56C485.68 134.62 487.2 132.34 489.2 130.8C491.2 129.26 493.82 128.44 497.04 128.44C500.26 128.44 502.88 129.26 504.88 130.8C506.88 132.34 508.4 134.62 509.36 137.56C510.32 140.5 510.8 143.98 510.8 147.88C510.8 151.78 510.32 155.26 509.36 158.36C508.4 161.46 506.88 163.9 504.88 165.8Z" fill="#2E3A59"/>
    
    <path d="M538.56 125H530.72V165H538.56V125Z" fill="#2E3A59"/>
    
    <path d="M566.32 125H558.48L543.28 165H552.24L554.72 156.92H570.08L572.56 165H581.52L566.32 125ZM557.36 149.64L562.4 134.16L567.44 149.64H557.36Z" fill="#2E3A59"/>
    
    <path d="M604.56 125H596.72V165H604.56V125Z" fill="#2E3A59"/>
  </g>
</svg>