<?xml version="1.0" encoding="UTF-8" standalone="no"?>
<svg width="600" height="200" viewBox="0 0 600 200" fill="none" xmlns="http://www.w3.org/2000/svg">
  <!-- Hexagon with circuit design - EXACT match to attached image -->
  <g id="logo-group">
    <!-- Hexagon outline -->
    <path d="M147.5 22.5L80 22.5C76.5 22.5 73.5 24 71.5 26.5L37.5 84C35.5 86.5 35.5 90 37.5 92.5L71.5 150C73.5 152.5 76.5 154 80 154L147.5 154C151 154 154 152.5 156 150L190 92.5C192 90 192 86.5 190 84L156 26.5C154 24 151 22.5 147.5 22.5Z" fill="#009DFF" stroke="#009DFF" stroke-width="2"/>
    
    <!-- Inner design elements -->
    <path d="M113.5 40L77 40C74.5 40 72.5 41 71 43L53 74C51.5 76 51.5 78.5 53 80.5L71 111.5C72.5 113.5 74.5 114.5 77 114.5L113.5 114.5C116 114.5 118 113.5 119.5 111.5L137.5 80.5C139 78.5 139 76 137.5 74L119.5 43C118 41 116 40 113.5 40Z" fill="white" stroke="#009DFF" stroke-width="3"/>
    
    <!-- Circuit nodes and lines -->
    <circle cx="95" cy="60" r="5" fill="#009DFF"/>
    <circle cx="130" cy="77" r="5" fill="#009DFF"/>
    <circle cx="80" cy="94" r="5" fill="#009DFF"/>
    <path d="M95 60L130 77L80 94" stroke="#009DFF" stroke-width="3"/>
  </g>
  
  <!-- Text: CYBER -->
  <g id="cyber-text">
    <path d="M320 45C320 32 309.5 25 295 25H270V105H295C309.5 105 320 98 320 85V45ZM305 85C305 90 301 92 295 92H285V38H295C301 38 305 40 305 45V85Z" fill="#009DFF"/>
    <path d="M380 25H335V105H380V92H350V72H375V59H350V38H380V25Z" fill="#009DFF"/>
    <path d="M435 25H420L395 105H410L415 85H440L445 105H460L435 25ZM420 72L427.5 45L432.5 72H420Z" fill="#009DFF"/>
    <path d="M510 25H495L470 105H485L490 85H515L520 105H535L510 25ZM495 72L502.5 45L507.5 72H495Z" fill="#009DFF"/>
    <path d="M585 25H570L545 105H560L565 85H590L595 105H610L585 25ZM570 72L577.5 45L582.5 72H570Z" fill="#009DFF"/>
  </g>
  
  <!-- Text: DIGITAL SOLUTIONS -->
  <g id="tagline-text">
    <path d="M270 125H285C293.5 125 300 130 300 140V150C300 160 293.5 165 285 165H270V125ZM285 157C290 157 292 154 292 150V140C292 136 290 133 285 133H278V157H285Z" fill="#2D3748"/>
    <path d="M310 125H318V165H310V125Z" fill="#2D3748"/>
    <path d="M355 125H346V165H356L375 143V165H382V125H375L355 147V125Z" fill="#2D3748"/>
    <path d="M395 125H403V165H395V125Z" fill="#2D3748"/>
    <path d="M425 125H410V165H425C435 165 440 159 440 150V140C440 131 435 125 425 125ZM425 157H418V133H425C430 133 432 135 432 140V150C432 155 430 157 425 157Z" fill="#2D3748"/>
    <path d="M455 125H463V157H482V165H455V125Z" fill="#2D3748"/>
    
    <path d="M505 140C498 138 497 137 497 135C497 133 499 131 503 131C507 131 510 133 510 136H517C517 129 511 125 503 125C495 125 489 129 489 135C489 141 492 144 501 146C508 148 509 149 509 151C509 153 507 155 503 155C499 155 496 153 496 150H489C489 157 495 161 503 161C511 161 517 157 517 151C517 145 514 142 505 140Z" fill="#2D3748"/>
    <path d="M545 150C545 156 541 161 535 161C529 161 525 156 525 145C525 134 529 129 535 129C541 129 545 134 545 140V150ZM553 145C553 131 546 125 535 125C524 125 517 131 517 145C517 159 524 165 535 165C546 165 553 159 553 145Z" fill="#2D3748"/>
    <path d="M565 125V165H573V148H585C592 148 596 144 596 137V136C596 129 592 125 585 125H565ZM585 140H573V133H585C588 133 589 134 589 136V137C589 139 588 140 585 140Z" fill="#2D3748"/>
    <path d="M630 125H615L600 165H608L611 155H624L627 165H635L630 125ZM614 148L618 135L622 148H614Z" fill="#2D3748"/>
    <path d="M655 125H640V165H648V150H655C662 150 665 146 665 138C665 130 662 125 655 125ZM655 143H648V132H655C658 132 659 134 659 138C659 141 658 143 655 143Z" fill="#2D3748"/>
    <path d="M690 125H675V165H683V150H690C697 150 700 146 700 138C700 130 697 125 690 125ZM690 143H683V132H690C693 132 694 134 694 138C694 141 693 143 690 143Z" fill="#2D3748"/>
  </g>
</svg>