<?xml version="1.0" encoding="UTF-8" standalone="no"?>
<svg width="650" height="180" viewBox="0 0 650 180" fill="none" xmlns="http://www.w3.org/2000/svg">
  <!-- Hexagon with circuit design -->
  <g id="hex-logo">
    <path d="M147.5 22.5L80 22.5C76.5 22.5 73.5 24 71.5 26.5L37.5 84C35.5 86.5 35.5 90 37.5 92.5L71.5 150C73.5 152.5 76.5 154 80 154L147.5 154C151 154 154 152.5 156 150L190 92.5C192 90 192 86.5 190 84L156 26.5C154 24 151 22.5 147.5 22.5Z" stroke="#0099FF" stroke-width="6" fill="none"/>
    <path d="M113.5 40L77 40C74.5 40 72.5 41 71 43L53 74C51.5 76 51.5 78.5 53 80.5L71 111.5C72.5 113.5 74.5 114.5 77 114.5L113.5 114.5C116 114.5 118 113.5 119.5 111.5L137.5 80.5C139 78.5 139 76 137.5 74L119.5 43C118 41 116 40 113.5 40Z" stroke="#0099FF" stroke-width="6" fill="none"/>
    <circle cx="95" cy="60" r="5" fill="#0099FF"/>
    <circle cx="130" cy="77" r="5" fill="#0099FF"/>
    <circle cx="80" cy="94" r="5" fill="#0099FF"/>
    <path d="M95 60L130 77L80 94" stroke="#0099FF" stroke-width="3"/>
  </g>
  
  <!-- Text: CYBER -->
  <path d="M275 55C275 42 264.5 35 250 35L225 35L225 115L250 115C264.5 115 275 108 275 95L275 55ZM260 95C260 100 256 102 250 102L240 102L240 48L250 48C256 48 260 50 260 55L260 95Z" fill="#0099FF"/>
  <path d="M335 35L290 35L290 115L335 115L335 102L305 102L305 82L330 82L330 69L305 69L305 48L335 48L335 35Z" fill="#0099FF"/>
  <path d="M390 35L375 35L350 115L365 115L370 95L395 95L400 115L415 115L390 35ZM375 82L382.5 55L387.5 82L375 82Z" fill="#0099FF"/>
  <path d="M465 35L450 35L425 115L440 115L445 95L470 95L475 115L490 115L465 35ZM450 82L457.5 55L462.5 82L450 82Z" fill="#0099FF"/>
  <path d="M540 35L525 35L500 115L515 115L520 95L545 95L550 115L565 115L540 35ZM525 82L532.5 55L537.5 82L525 82Z" fill="#0099FF"/>
  
  <!-- Text: DIGITAL SOLUTIONS -->
  <path d="M225 135L240 135C248.5 135 255 140 255 150L255 160C255 170 248.5 175 240 175L225 175L225 135ZM240 167C245 167 247 164 247 160L247 150C247 146 245 143 240 143L233 143L233 167L240 167Z" fill="#2D3748"/>
  <path d="M265 135L273 135L273 175L265 175L265 135Z" fill="#2D3748"/>
  <path d="M293 135L286 135L286 175L294 175L313 153L313 175L320 175L320 135L313 135L293 157L293 135Z" fill="#2D3748"/>
  <path d="M335 135L343 135L343 175L335 175L335 135Z" fill="#2D3748"/>
  <path d="M365 135L350 135L350 175L365 175C375 175 380 169 380 160L380 150C380 141 375 135 365 135ZM365 167L358 167L358 143L365 143C370 143 372 145 372 150L372 160C372 165 370 167 365 167Z" fill="#2D3748"/>
  <path d="M395 135L403 135L403 167L422 167L422 175L395 175L395 135Z" fill="#2D3748"/>
  
  <path d="M445 150C438 148 437 147 437 145C437 143 439 141 443 141C447 141 450 143 450 146L457 146C457 139 451 135 443 135C435 135 429 139 429 145C429 151 432 154 441 156C448 158 449 159 449 161C449 163 447 165 443 165C439 165 436 163 436 160L429 160C429 167 435 171 443 171C451 171 457 167 457 161C457 155 454 152 445 150Z" fill="#2D3748"/>
  <path d="M485 160C485 166 481 171 475 171C469 171 465 166 465 155C465 144 469 139 475 139C481 139 485 144 485 150L485 160ZM493 155C493 141 486 135 475 135C464 135 457 141 457 155C457 169 464 175 475 175C486 175 493 169 493 155Z" fill="#2D3748"/>
  <path d="M505 135L505 175L513 175L513 158L525 158C532 158 536 154 536 147L536 146C536 139 532 135 525 135L505 135ZM525 150L513 150L513 143L525 143C528 143 529 144 529 146L529 147C529 149 528 150 525 150Z" fill="#2D3748"/>
  <path d="M580 135L565 135L550 175L558 175L561 165L574 165L577 175L585 175L580 135ZM564 158L568 145L572 158L564 158Z" fill="#2D3748"/>
  <path d="M605 135L590 135L590 175L598 175L598 160L605 160C612 160 616 156 616 148C616 140 612 135 605 135ZM605 153L598 153L598 142L605 142C608 142 609 144 609 148C609 151 608 153 605 153Z" fill="#2D3748"/>
  <path d="M640 135L625 135L625 175L633 175L633 160L640 160C647 160 650 156 650 148C650 140 647 135 640 135ZM640 153L633 153L633 142L640 142C643 142 644 144 644 148C644 151 643 153 640 153Z" fill="#2D3748"/>
</svg>