<?xml version="1.0" encoding="UTF-8" standalone="no"?>
<svg width="400" height="60" viewBox="0 0 400 60" fill="none" xmlns="http://www.w3.org/2000/svg">
  <!-- Simple, modern, elegant logo for Cyber Digital Solutions -->
  
  <!-- "CYBER" in a modern sans-serif font -->
  <path d="M26.816 15.84C24.576 15.84 22.64 16.272 21.008 17.136C19.376 18 18.112 19.2 17.216 20.736C16.32 22.272 15.872 24.016 15.872 25.968C15.872 27.92 16.32 29.664 17.216 31.2C18.112 32.736 19.376 33.936 21.008 34.8C22.64 35.664 24.576 36.096 26.816 36.096C29.056 36.096 30.992 35.664 32.624 34.8C34.256 33.936 35.52 32.736 36.416 31.2C37.312 29.664 37.76 27.92 37.76 25.968C37.76 24.016 37.312 22.272 36.416 20.736C35.52 19.2 34.256 18 32.624 17.136C30.992 16.272 29.056 15.84 26.816 15.84ZM26.816 31.2C25.344 31.2 24.144 30.736 23.216 29.808C22.288 28.88 21.824 27.6 21.824 25.968C21.824 24.336 22.288 23.056 23.216 22.128C24.144 21.2 25.344 20.736 26.816 20.736C28.288 20.736 29.488 21.2 30.416 22.128C31.344 23.056 31.808 24.336 31.808 25.968C31.808 27.6 31.344 28.88 30.416 29.808C29.488 30.736 28.288 31.2 26.816 31.2Z" fill="#0090FF"/>
  
  <path d="M58.232 26.592L48.488 46.512H42.344L52.088 26.592L42.344 6.672H48.488L58.232 26.592Z" fill="#0090FF"/>
  
  <path d="M60.176 6.672H78.752V11.76H66.224V23.328H76.928V28.416H66.224V41.424H78.752V46.512H60.176V6.672Z" fill="#0090FF"/>
  
  <path d="M100.096 6.672H106.144V46.512H100.096V28.992H85.024V46.512H78.976V6.672H85.024V23.904H100.096V6.672Z" fill="#0090FF"/>
  
  <!-- "DIGITAL" in a modern sans-serif font -->
  <path d="M148.032 6.672H154.08V46.512H148.032V28.992H132.96V46.512H126.912V6.672H132.96V23.904H148.032V6.672Z" fill="#333333"/>
  
  <path d="M158.128 6.672H164.176V46.512H158.128V6.672Z" fill="#333333"/>
  
  <path d="M190.576 46.512L177.392 26.592L190.576 6.672H183.344L174.32 20.64L165.296 6.672H158.064L171.248 26.592L158.064 46.512H165.296L174.32 32.544L183.344 46.512H190.576Z" fill="#333333"/>
  
  <path d="M192.208 6.672H198.256V46.512H192.208V6.672Z" fill="#333333"/>
  
  <path d="M206.72 46.512H200.672V6.672H206.72L224.032 36.624V6.672H230.08V46.512H224.032L206.72 16.56V46.512Z" fill="#333333"/>
  
  <path d="M258.448 46.512H252.4L246.544 32.832H234.784L228.928 46.512H222.88L238.624 6.672H242.704L258.448 46.512ZM244.448 27.744L240.64 17.76L236.88 27.744H244.448Z" fill="#333333"/>
  
  <path d="M264.016 6.672H270.064V41.424H286.864V46.512H264.016V6.672Z" fill="#333333"/>
  
  <!-- "SOLUTIONS" in a modern sans-serif font -->
  <path d="M293.568 10.8C291.872 10.8 290.528 10.336 289.536 9.408C288.544 8.48 288.048 7.376 288.048 6.096C288.048 4.784 288.544 3.664 289.536 2.736C290.528 1.808 291.872 1.344 293.568 1.344C295.232 1.344 296.544 1.808 297.504 2.736C298.496 3.664 298.992 4.784 298.992 6.096C298.992 7.376 298.496 8.48 297.504 9.408C296.544 10.336 295.232 10.8 293.568 10.8ZM290.592 15.84H296.64V46.512H290.592V15.84Z" fill="#333333"/>
  
  <path d="M320.256 46.512L307.072 26.592L320.256 6.672H313.024L304 20.64L294.976 6.672H287.744L300.928 26.592L287.744 46.512H294.976L304 32.544L313.024 46.512H320.256Z" fill="#333333"/>
  
  <path d="M342.16 15.84H348.208V46.512H342.16V33.264H327.088V46.512H321.04V15.84H327.088V28.176H342.16V15.84Z" fill="#333333"/>
  
  <path d="M353.296 15.84H368.848C371.312 15.84 373.472 16.272 375.328 17.136C377.184 18 378.624 19.2 379.648 20.736C380.672 22.272 381.184 24.016 381.184 25.968C381.184 27.92 380.672 29.664 379.648 31.2C378.624 32.736 377.184 33.936 375.328 34.8C373.472 35.664 371.312 36.096 368.848 36.096H359.344V46.512H353.296V15.84ZM368.176 31.2C369.776 31.2 371.056 30.768 372.016 29.904C372.976 29.04 373.456 27.792 373.456 26.16C373.456 24.528 372.976 23.28 372.016 22.416C371.056 21.552 369.776 21.12 368.176 21.12H359.344V31.2H368.176Z" fill="#333333"/>
  
  <path d="M400 47.04C397.344 47.04 394.912 46.448 392.704 45.264C390.496 44.08 388.752 42.384 387.472 40.176C386.192 37.968 385.552 35.408 385.552 32.496C385.552 29.584 386.192 27.024 387.472 24.816C388.752 22.608 390.496 20.912 392.704 19.728C394.912 18.544 397.344 17.952 400 17.952C402.624 17.952 405.024 18.544 407.2 19.728C409.376 20.912 411.12 22.608 412.432 24.816C413.744 27.024 414.4 29.584 414.4 32.496C414.4 35.408 413.744 37.968 412.432 40.176C411.12 42.384 409.376 44.08 407.2 45.264C405.024 46.448 402.624 47.04 400 47.04ZM400 41.76C401.792 41.76 403.28 41.248 404.464 40.224C405.648 39.2 406.24 37.376 406.24 34.752V30.24C406.24 27.616 405.648 25.792 404.464 24.768C403.28 23.744 401.792 23.232 400 23.232C398.176 23.232 396.672 23.744 395.488 24.768C394.304 25.792 393.712 27.616 393.712 30.24V34.752C393.712 37.376 394.304 39.2 395.488 40.224C396.672 41.248 398.176 41.76 400 41.76Z" fill="#333333"/>
</svg>