<?xml version="1.0" encoding="UTF-8" standalone="no"?>
<svg width="500" height="80" viewBox="0 0 500 80" fill="none" xmlns="http://www.w3.org/2000/svg">
  <!-- Modern, simple, professional logo for Cyber Digital Solutions -->
  
  <!-- "CYBER" Text -->
  <path d="M37.464 19.072C41.336 19.072 44.584 19.808 47.208 21.28C49.864 22.752 51.848 24.768 53.16 27.328C54.472 29.856 55.128 32.72 55.128 35.92C55.128 39.12 54.472 42 53.16 44.56C51.848 47.088 49.864 49.104 47.208 50.608C44.584 52.08 41.336 52.816 37.464 52.816H22.872V63.136H11.64V19.072H37.464ZM36.6 43.6C39.768 43.6 42.168 42.832 43.8 41.296C45.464 39.728 46.296 37.216 46.296 35.92C46.296 33.584 45.464 31.28 43.8 29.712C42.168 28.144 39.768 27.36 36.6 27.36H22.872V43.6H36.6Z" fill="#0072CE"/>
  
  <path d="M84.592 63.76C80.624 63.76 77.08 62.864 73.96 61.072C70.84 59.28 68.376 56.8 66.568 53.632C64.792 50.432 63.904 46.8 63.904 42.736C63.904 38.672 64.792 35.056 66.568 31.888C68.376 28.688 70.84 26.208 73.96 24.448C77.08 22.656 80.624 21.76 84.592 21.76C88.56 21.76 92.104 22.656 95.224 24.448C98.344 26.208 100.792 28.688 102.568 31.888C104.376 35.056 105.28 38.672 105.28 42.736C105.28 46.8 104.376 50.432 102.568 53.632C100.792 56.8 98.344 59.28 95.224 61.072C92.104 62.864 88.56 63.76 84.592 63.76ZM84.592 54.832C87.376 54.832 89.688 53.824 91.528 51.808C93.4 49.76 94.336 46.736 94.336 42.736C94.336 38.736 93.4 35.728 91.528 33.712C89.688 31.664 87.376 30.64 84.592 30.64C81.808 30.64 79.48 31.664 77.608 33.712C75.768 35.728 74.848 38.736 74.848 42.736C74.848 46.736 75.768 49.76 77.608 51.808C79.48 53.824 81.808 54.832 84.592 54.832Z" fill="#0072CE"/>
  
  <path d="M131.344 21.76C134.464 21.76 137.216 22.368 139.6 23.584C141.984 24.8 143.824 26.416 145.12 28.432C146.448 30.448 147.112 32.688 147.112 35.152C147.112 37.616 146.448 39.856 145.12 41.872C143.824 43.888 141.984 45.504 139.6 46.72C137.216 47.936 134.464 48.544 131.344 48.544H120.928V63.136H109.744V21.76H131.344ZM130.384 39.664C132.304 39.664 133.776 39.184 134.8 38.224C135.824 37.264 136.336 36 136.336 34.432C136.336 32.832 135.824 31.552 134.8 30.592C133.776 29.632 132.304 29.152 130.384 29.152H120.928V39.664H130.384Z" fill="#0072CE"/>
  
  <path d="M165.008 63.76C162.064 63.76 159.44 63.328 157.136 62.464C154.832 61.568 152.912 60.352 151.376 58.816C149.84 57.248 148.656 55.488 147.824 53.536C147.024 51.552 146.624 49.456 146.624 47.248V21.76H157.76V46.48C157.76 49.232 158.496 51.392 159.968 52.96C161.44 54.528 163.472 55.312 166.064 55.312C168.624 55.312 170.656 54.528 172.16 52.96C173.664 51.392 174.416 49.232 174.416 46.48V21.76H185.456V47.2C185.456 51.808 184.24 55.52 181.808 58.336C179.376 61.152 176.144 62.864 172.112 63.472C169.712 63.664 167.344 63.76 165.008 63.76Z" fill="#0072CE"/>
  
  <path d="M214.48 63.76C210.512 63.76 206.968 62.864 203.848 61.072C200.728 59.28 198.264 56.8 196.456 53.632C194.68 50.432 193.792 46.8 193.792 42.736C193.792 38.672 194.68 35.056 196.456 31.888C198.264 28.688 200.728 26.208 203.848 24.448C206.968 22.656 210.512 21.76 214.48 21.76C219.456 21.76 223.552 22.848 226.768 25.024C230.016 27.2 232.24 30.336 233.44 34.432L223.504 37.616C222.768 35.472 221.632 33.888 220.096 32.864C218.592 31.808 216.72 31.28 214.48 31.28C211.648 31.28 209.296 32.288 207.424 34.304C205.584 36.32 204.664 39.12 204.664 42.704C204.664 46.288 205.584 49.104 207.424 51.152C209.296 53.168 211.648 54.176 214.48 54.176C216.752 54.176 218.624 53.648 220.096 52.592C221.6 51.536 222.736 49.936 223.504 47.792L233.488 51.024C232.288 55.152 230.048 58.32 226.768 60.496C223.52 62.672 219.456 63.76 214.48 63.76Z" fill="#0072CE"/>
  
  <path d="M260.368 63.136L250.576 47.536H246.704V63.136H235.52V21.76H256.16C259.28 21.76 261.984 22.352 264.256 23.536C266.56 24.688 268.304 26.24 269.488 28.192C270.672 30.144 271.264 32.304 271.264 34.672C271.264 37.52 270.416 40.048 268.72 42.256C267.056 44.464 264.576 45.92 261.28 46.624L272.176 63.136H260.368ZM246.704 40.096H255.2C257.12 40.096 258.592 39.616 259.616 38.656C260.64 37.664 261.152 36.336 261.152 34.672C261.152 33.04 260.64 31.744 259.616 30.784C258.592 29.824 257.12 29.344 255.2 29.344H246.704V40.096Z" fill="#0072CE"/>
  
  <!-- Space between CYBER and DIGITAL -->
  
  <!-- "DIGITAL" Text -->
  <path d="M285.736 19.072C289.608 19.072 292.856 19.808 295.48 21.28C298.136 22.752 300.12 24.768 301.432 27.328C302.744 29.856 303.4 32.72 303.4 35.92C303.4 39.12 302.744 42 301.432 44.56C300.12 47.088 298.136 49.104 295.48 50.608C292.856 52.08 289.608 52.816 285.736 52.816H271.144V63.136H259.912V19.072H285.736ZM284.872 43.6C288.04 43.6 290.44 42.832 292.072 41.296C293.736 39.728 294.568 37.216 294.568 35.92C294.568 33.584 293.736 31.28 292.072 29.712C290.44 28.144 288.04 27.36 284.872 27.36H271.144V43.6H284.872Z" fill="#333333"/>
  
  <path d="M314.008 63.136V21.76H325.192V63.136H314.008Z" fill="#333333"/>
  
  <path d="M361.696 54.736V63.136H330.088V21.76H360.784V30.16H341.224V37.76H358.656V45.92H341.224V54.736H361.696Z" fill="#333333"/>
  
  <path d="M370.48 63.136V21.76H381.664V63.136H370.48Z" fill="#333333"/>
  
  <path d="M412.328 63.136L394.04 39.28V63.136H382.856V21.76H393.656L411.896 45.568V21.76H423.08V63.136H412.328Z" fill="#333333"/>
  
  <path d="M453.752 63.136L450.76 55.696H433.576L430.584 63.136H418.872L435.496 21.76H449.08L465.704 63.136H453.752ZM437.016 47.488H447.336L442.176 33.472L437.016 47.488Z" fill="#333333"/>
  
  <path d="M467.24 21.76H478.424V54.688H498.608V63.136H467.24V21.76Z" fill="#333333"/>
</svg>